<?xml version="1.0" standalone="no"?>
<!DOCTYPE svg PUBLIC "-//W3C//DTD SVG 20010904//EN"
 "http://www.w3.org/TR/2001/REC-SVG-20010904/DTD/svg10.dtd">
<svg version="1.0" xmlns="http://www.w3.org/2000/svg"
 width="928.000000pt" height="928.000000pt" viewBox="0 0 928.000000 928.000000"
 preserveAspectRatio="xMidYMid meet">
<metadata>
Created by potrace 1.11, written by Peter Selinger 2001-2013
</metadata>
<g transform="translate(0.000000,928.000000) scale(0.100000,-0.100000)"
fill="#000000" stroke="none">
<path d="M4689 9276 c-2 -2 -31 -7 -64 -11 -33 -3 -82 -11 -110 -16 -27 -5
-66 -12 -85 -15 -38 -6 -152 -35 -240 -62 -30 -9 -57 -16 -60 -17 -7 -1 -148
-54 -195 -74 -55 -22 -340 -165 -395 -197 -25 -15 -46 -31 -48 -35 -2 -5 -11
-9 -19 -9 -9 0 -31 -11 -49 -25 -18 -14 -35 -25 -38 -25 -17 0 -587 -406 -616
-439 -12 -14 -299 -241 -304 -241 -3 0 -6 8 -6 17 0 20 -70 167 -82 171 -4 2
-8 8 -8 14 0 15 -142 158 -157 158 -7 0 -13 4 -13 9 0 21 -215 111 -305 127
-14 2 -37 7 -52 11 -45 10 -448 13 -484 3 -19 -5 -49 -12 -68 -15 -19 -3 -39
-9 -45 -13 -6 -3 -20 -8 -31 -9 -28 -5 -202 -92 -216 -109 -6 -8 -15 -14 -20
-14 -14 0 -135 -118 -178 -174 -42 -55 -91 -143 -110 -197 -6 -19 -11 -34 -11
-34 1 0 -3 -13 -9 -28 -11 -29 -19 -66 -27 -132 -7 -52 -11 -4455 -4 -4455 3
0 6 -30 6 -68 1 -65 11 -171 20 -215 2 -12 7 -44 10 -72 4 -27 15 -88 26 -135
10 -47 21 -98 24 -115 3 -16 9 -41 14 -55 9 -25 51 -166 56 -185 1 -5 8 -23
15 -40 7 -16 13 -33 14 -37 2 -5 4 -10 5 -13 1 -3 3 -8 5 -12 4 -16 18 -50 41
-101 13 -29 24 -55 24 -58 0 -7 101 -209 127 -254 11 -19 34 -59 52 -88 17
-29 31 -57 31 -62 0 -5 6 -13 12 -17 13 -8 32 -35 45 -63 4 -8 11 -19 15 -25
5 -5 33 -44 63 -85 57 -79 81 -111 112 -147 10 -12 34 -41 53 -64 89 -108 296
-320 390 -399 23 -19 49 -42 58 -50 10 -9 42 -36 72 -60 30 -25 57 -47 60 -50
3 -3 44 -34 92 -69 48 -34 95 -69 103 -77 8 -9 15 -13 15 -9 0 3 25 -13 55
-35 30 -22 57 -40 60 -40 3 0 18 -8 33 -19 68 -46 141 -91 150 -91 6 0 12 -3
14 -7 4 -10 32 -25 223 -122 160 -80 184 -92 335 -154 98 -40 274 -104 306
-112 11 -2 46 -14 79 -25 103 -35 400 -111 448 -113 9 -1 17 -4 17 -7 0 -3 10
-5 23 -6 12 0 38 -4 57 -8 19 -4 49 -9 65 -12 17 -2 46 -6 65 -9 59 -9 104
-15 250 -30 98 -11 204 -14 400 -14 206 0 259 2 445 14 162 10 209 14 235 19
14 3 52 8 85 11 107 11 183 21 260 35 28 6 66 12 85 15 40 5 81 12 125 22 17
3 37 7 45 9 17 3 14 2 192 45 73 18 135 32 138 32 17 1 399 134 469 163 130
54 340 157 443 217 51 29 104 60 118 68 14 8 27 17 30 20 3 3 46 33 95 67 79
54 103 72 162 122 7 5 17 10 23 10 5 0 10 6 10 13 0 7 13 20 29 30 46 27 250
235 340 347 81 101 153 205 223 325 33 55 132 253 133 265 0 5 60 166 75 205
7 17 16 50 25 90 2 6 10 34 18 63 9 28 14 52 11 52 -3 0 -1 8 5 18 5 9 11 35
14 57 4 22 11 64 16 93 6 29 10 56 10 60 -1 4 0 9 1 12 10 24 15 149 15 385 0
296 -4 354 -35 495 -6 25 -12 54 -13 65 -2 11 -9 40 -16 65 -13 45 -17 59 -20
72 -1 4 -9 27 -17 50 -9 24 -17 51 -19 62 -3 10 -8 23 -13 30 -5 6 -17 31 -26
56 -29 73 -77 171 -113 228 -18 29 -33 55 -33 58 0 10 -113 169 -132 187 -11
9 -17 17 -13 17 30 0 -379 410 -427 429 -5 1 -20 13 -32 25 -13 11 -50 39 -82
61 -33 22 -61 42 -64 45 -3 3 -27 20 -55 38 -27 17 -55 36 -62 42 -7 5 -15 10
-19 10 -4 0 -34 17 -68 38 -34 21 -86 51 -116 66 -30 15 -71 36 -90 46 -46 23
-176 84 -220 103 -131 56 -298 120 -302 116 -6 -5 -95 56 -122 85 -98 104
-106 298 -16 394 11 12 20 24 20 28 0 9 73 108 82 112 5 2 8 7 8 11 0 5 25 49
55 99 49 82 171 323 167 330 -2 1 5 16 13 32 9 17 12 30 8 30 -5 0 -3 4 2 8
20 14 107 315 121 417 11 78 15 114 20 160 6 60 6 330 -1 400 -13 144 -17 178
-29 235 -3 13 -8 42 -12 65 -14 102 -92 363 -129 435 -7 14 -31 64 -54 112
-23 48 -46 90 -51 93 -6 4 -8 11 -5 16 4 5 1 9 -4 9 -6 0 -11 5 -11 10 0 6
-16 33 -35 60 -19 27 -35 54 -35 60 0 5 -4 10 -9 10 -4 0 -20 17 -33 38 -52
78 -199 226 -323 325 -54 43 -135 97 -145 97 -5 0 -10 3 -10 8 0 4 -10 12 -23
18 -12 7 -69 36 -127 66 -90 47 -143 71 -185 84 -5 2 -53 17 -105 35 -128 43
-123 41 -140 44 -8 1 -28 6 -45 9 -160 36 -187 39 -501 42 -176 2 -323 2 -325
0z m-99 -1150 c69 -8 165 -25 235 -42 76 -19 263 -108 317 -152 221 -178 344
-417 385 -752 14 -113 8 -407 -11 -496 -2 -12 -7 -37 -10 -55 -3 -19 -10 -49
-15 -66 -5 -18 -8 -33 -6 -33 2 0 -3 -16 -11 -35 -8 -19 -11 -35 -8 -35 4 0 1
-7 -6 -15 -7 -8 -9 -15 -5 -15 4 0 3 -6 -2 -12 -6 -7 -18 -38 -27 -68 -10 -30
-25 -71 -33 -90 -50 -111 -111 -233 -144 -289 -22 -34 -39 -67 -39 -71 0 -5
-6 -15 -13 -22 -7 -7 -33 -44 -58 -83 -50 -77 -183 -250 -235 -305 -74 -78
-94 -104 -118 -154 -80 -163 -45 -347 88 -468 47 -44 124 -83 181 -94 50 -10
45 -9 80 -17 17 -4 41 -9 55 -11 14 -3 40 -9 58 -15 17 -5 32 -7 32 -4 0 3 7
0 15 -7 8 -7 15 -10 15 -7 0 4 118 -30 220 -63 47 -15 199 -79 252 -106 87
-43 234 -133 253 -154 10 -11 22 -20 27 -20 18 0 181 -159 227 -220 14 -19 29
-37 32 -40 25 -20 157 -258 163 -294 1 -6 8 -21 14 -33 7 -13 10 -23 6 -23 -3
0 -1 -7 6 -15 7 -8 9 -15 5 -15 -4 0 -3 -6 2 -12 13 -16 51 -175 68 -283 36
-224 38 -531 6 -705 -6 -30 -12 -66 -15 -80 -23 -129 -83 -307 -152 -448 -32
-65 -61 -118 -66 -120 -4 -2 -8 -8 -8 -13 0 -12 -76 -122 -128 -189 -100 -125
-316 -312 -431 -373 -26 -14 -72 -39 -103 -56 -32 -17 -64 -31 -73 -31 -8 0
-15 -5 -15 -12 0 -6 -3 -9 -6 -5 -4 3 -19 0 -34 -8 -35 -18 -203 -72 -249 -80
-19 -3 -37 -7 -40 -9 -3 -2 -24 -7 -46 -10 -22 -4 -67 -11 -100 -16 -185 -29
-474 -27 -695 4 -14 2 -50 7 -80 11 -30 3 -57 8 -60 10 -3 2 -24 6 -47 10 -23
3 -68 13 -100 21 -32 9 -62 17 -68 18 -5 2 -17 5 -25 8 -8 3 -55 18 -105 33
-198 63 -425 183 -595 314 -91 71 -242 217 -303 293 -21 26 -43 53 -50 60 -32
34 -148 226 -203 338 -52 105 -124 285 -139 348 -3 9 -14 49 -25 87 -11 39
-22 79 -24 90 -2 11 -9 43 -16 70 -6 28 -13 61 -15 75 -2 14 -6 34 -8 45 -3
11 -8 45 -12 75 -4 30 -9 64 -11 75 -2 11 -7 54 -10 95 -3 41 -8 91 -11 110
-2 19 -6 818 -8 1775 l-2 1740 67 65 c72 70 288 268 332 306 97 80 158 133
183 156 17 15 34 28 39 28 5 0 16 8 25 18 30 33 335 252 351 252 6 0 10 5 10
10 0 6 4 10 10 10 5 0 33 15 62 34 29 18 55 33 58 32 3 0 19 8 35 20 40 28
155 84 172 84 7 0 13 3 13 8 0 6 81 40 102 42 4 0 28 9 54 20 25 11 55 22 67
24 12 2 45 10 72 16 28 7 75 14 105 17 30 3 56 6 57 7 5 5 208 -2 263 -8z"/>
</g>
</svg>
